<svg id="svg11182" height="480" viewBox="0 0 480 480.00001" width="480" xmlns="http://www.w3.org/2000/svg" xmlns:cc="http://creativecommons.org/ns#" xmlns:dc="http://purl.org/dc/elements/1.1/" xmlns:inkscape="http://www.inkscape.org/namespaces/inkscape" xmlns:rdf="http://www.w3.org/1999/02/22-rdf-syntax-ns#" xmlns:sodipodi="http://sodipodi.sourceforge.net/DTD/sodipodi-0.dtd" xmlns:svg="http://www.w3.org/2000/svg"><clipPath id="clipPath29920-8-2-1"><ellipse id="path29922-3-3-5" cx="-514.286" cy="506.648" rx="260" ry="248.571" transform="matrix(.685 0 0 .716 705.099 116.389)"/></clipPath><g id="layer1" transform="translate(0 -572.362)"><g id="g15964" transform="translate(19429.811 -16564.841)"><path id="path15962" d="m-19189.811 17617.203c-132.821 0-240-107.178-240-240 0-132.821 107.179-240 240-240 132.822 0 240 107.179 240 240 0 132.822-107.178 240-240 240z" fill="#3b3c3d" text-indent="0" text-align="start" text-decoration-line="none" text-decoration-style="solid" text-decoration-color="#000000" text-transform="none" block-progression="tb" white-space="normal" isolation="auto" mix-blend-mode="normal" solid-color="#000000" solid-opacity="1"/><path id="rect13196" d="m-19189.811 17601.203c124.235 0 224-99.765 224-224 0-124.234-99.765-224-224-224-124.234 0-224 99.766-224 224 0 124.235 99.766 224 224 224z" fill="#3ab37c" text-indent="0" text-align="start" text-decoration-line="none" text-decoration-style="solid" text-decoration-color="#000000" text-transform="none" block-progression="tb" white-space="normal" isolation="auto" mix-blend-mode="normal" solid-color="#000000" solid-opacity="1"/><path id="path13174" d="m-19189.826 17252.203 5.353 16.241h17.3l-14.003 10.042 5.353 16.241-14.003-10.041-14.003 10.041 5.353-16.241-14.003-10.042h17.3z" fill="#fad741"/><path id="path13176" d="m-19293.836 17324.82 10.525 2.209 5.383-9.225 1.12 10.586 10.525 2.207-9.829 4.325 1.118 10.555-7.198-7.894-9.83 4.325 5.384-9.194z" fill="#fad741"/><path id="path13178" d="m-19257.301 17277.518 7.984 7.137 9.346-5.323-4.386 9.709 7.985 7.107-10.707-1.12-4.355 9.708-2.267-10.373-10.676-1.15 9.315-5.292-2.238-10.404" fill="#fad741"/><path id="path13180" d="m-19085.816 17324.82-10.494 2.209-5.414-9.225-1.118 10.586-10.525 2.207 9.829 4.325-1.12 10.555 7.198-7.894 9.83 4.325-5.384-9.194z" fill="#fad741"/><path id="path13182" d="m-19122.351 17277.518-7.984 7.137-9.316-5.323 4.356 9.709-7.985 7.107 10.707-1.12 4.385 9.708 2.238-10.373 10.707-1.15-9.346-5.292 2.238-10.404" fill="#fad741"/><g fill="#fff"><path id="path13184" d="m-19189.826 17415.16c-10.223 7.017-20.99 22.26-45.851 22.26-35.143 0-48.209-10.283-58.613-18.117l8.952-5.353c14.064 9.83 29.761 18.51 59.007 17.239-36.142-3.175-60.579-22.864-67.959-41.011 19.538-13.549 51.899-13.277 78.424 5.384-8.257-10.223-35.961-21.595-56.678-18.419-2.964-3.055-5.565-6.896-8.56-9.951 23.833-5.262 56.981 9.83 69.139 22.23-12.793-20.324-22.139-43.34-6.986-71.316 2.994 2.812 6.351 5.625 9.315 8.438-11.372 20.566-7.259 44.61 1.967 61.335-15.939-32.452-3.145-64.511 17.844-80.117 20.96 15.606 33.783 47.665 17.875 80.117 9.164-16.725 13.337-40.769 1.935-61.335 2.994-2.813 6.352-5.626 9.346-8.438 15.122 27.976 5.807 50.992-7.017 71.316 12.189-12.4 45.306-27.492 69.108-22.23-2.933 3.055-5.534 6.896-8.528 9.951-20.688-3.176-48.391 8.196-56.709 18.419 26.555-18.661 58.916-18.933 78.484-5.384-7.379 18.147-31.877 37.836-67.989 41.011 29.277 1.271 44.913-7.409 59.037-17.239l8.952 5.353c-10.464 7.834-23.499 18.117-58.674 18.117-24.86 0-35.567-15.243-45.82-22.26"/><path id="path13186" d="m-19189.826 17421.935c-14.638 12.128-23.47 19.779-42.856 19.779l-58.463-.1c1.483 2.782 3.115 5.504 4.779 8.166l55.347.1c26.615 0 41.193-16.846 41.193-16.846s14.578 16.846 41.163 16.846l55.347-.07c1.725-2.662 3.327-5.384 4.778-8.166l-58.432.05c-19.386 0-28.218-7.652-42.856-19.78"/><path id="path13188" d="m-19281.225 17457.079 2.21 2.843h178.381l2.209-2.843h-182.797"/><path id="path13190" d="m-19271.395 17468.36 6.019 5.625h151.131l6.018-5.625z"/><path id="path13192" d="m-19258.36 17479.641c4.204 3.115 8.59 5.928 13.217 8.468h110.664c4.597-2.54 9.013-5.353 13.187-8.468z"/><path id="path13194" d="m-19239.699 17490.922c14.669 7.017 31.091 11.07 48.391 11.281h2.964c17.33-.218 33.722-4.264 48.361-11.281z"/></g></g></g></svg>