<svg fill="none" height="512" viewBox="0 0 512 512" width="512" xmlns="http://www.w3.org/2000/svg"><g clip-rule="evenodd" fill-rule="evenodd"><path d="m480 256c0 123.712-100.288 224-224 224s-224-100.288-224-224 100.288-224 224-224 224 100.288 224 224z" fill="#e92b2b"/><path d="m360 57.5551v396.8899c-31.078 16.321-66.461 25.555-104 25.555s-72.922-9.234-104-25.555v-396.8899c31.078-16.3209 66.461-25.5551 104-25.5551s72.922 9.2342 104 25.5551z" fill="#fbfbfb"/><path d="m152 454.445c-71.3408-37.465-120-112.273-120-198.445 0-86.173 48.6592-160.9804 120-198.4453z" fill="#32ab45"/></g><path d="m217.864 217.201 11.224 9.747c-6.793 25.284 11.114 50.502 37.223 52.421l8.595.632-13.73-22.746c-.643-1.066.125-2.427 1.37-2.427h25.451c0-22.05-19.454-39.034-41.303-36.058l-2.411.329-11.135-10.365c-.476-.443-1.173-.554-1.763-.281l-13.145 6.088c-1.053.488-1.253 1.899-.376 2.66z" fill="#ffbc0e"/><path clip-rule="evenodd" d="m312 240c4.418 0 8 3.582 8 8 0 16.974-6.743 33.253-18.745 45.255s-28.281 18.745-45.255 18.745-33.252-6.743-45.255-18.745c-12.002-12.002-18.745-28.281-18.745-45.255 0-4.418 3.582-8 8-8s8 3.582 8 8c0 12.73 5.057 24.939 14.059 33.941s21.211 14.059 33.941 14.059 24.939-5.057 33.941-14.059 14.059-21.211 14.059-33.941c0-4.418 3.582-8 8-8z" fill="#32ab45" fill-rule="evenodd"/></svg>