<svg id="svg4408" height="512" width="512" xmlns="http://www.w3.org/2000/svg" xmlns:xlink="http://www.w3.org/1999/xlink" xmlns:cc="http://creativecommons.org/ns#" xmlns:dc="http://purl.org/dc/elements/1.1/" xmlns:inkscape="http://www.inkscape.org/namespaces/inkscape" xmlns:rdf="http://www.w3.org/1999/02/22-rdf-syntax-ns#" xmlns:sodipodi="http://sodipodi.sourceforge.net/DTD/sodipodi-0.dtd" xmlns:svg="http://www.w3.org/2000/svg"><clipPath id="clipPath3647"><path id="path3649" d="m-360 118a208 208 0 1 1 -416 0 208 208 0 1 1 416 0z" transform="matrix(1.202 0 0 1.202 276.292 -525.827)"/></clipPath><g id="layer1" transform="translate(0 448)"><g id="g3043" clip-path="url(#clipPath3647)" transform="matrix(.96 0 0 .96 646.144 176.64)"><g id="g3753" transform="matrix(0 1 -1 0 379.962 -640)"><path id="rect2985" d="m536.362-506h166.667v500h-166.667z" fill="#c0392b" transform="rotate(90)"/><path id="rect2987" d="m703.029-506h166.667v500h-166.667z" fill="#2980b9" transform="rotate(90)"/><path id="rect2989" d="m869.696-506h166.667v500h-166.667z" fill="#c0392b" transform="rotate(90)"/></g><g id="g4116" transform="matrix(.122 0 0 .122 -453.937 -510.989)"><g fill="#f9cf02"><path id="path20-2" d="m-1412.9529 927.40932v960.00008h200v-960.00008zm680.00004 0v960.00008h200v-960.00008zm-440.00004 159.99998v80h400.00004v-80zm0 560.0001v80h400.00004v-80zm0-720.00008h400.00004l-200 119.99998zm0 840.00008h400.00004l-200 120z"/><circle id="circle12-8" cx="160" cy="164" r="44" transform="matrix(5 0 0 5 -1775.017 -162.464)"/><circle id="circle16-0" cx="160" cy="152" r="32" transform="matrix(5 0 0 5 -1775.017 -162.464)"/><path id="path18-6" d="m-1084.9824 306.86726a100.00001 100.00001 0 0 0 200.00002 0c0-40-25-45-25-60s15-35-15-60c15 25-10 30-10 55s10 25 10 45"/><circle id="circle16-0-0" cx="160" cy="152" r="32" transform="matrix(6.647 0 0 6.647 -2033.265 404.1)"/></g><circle id="circle30-3" cx="800" cy="1454" fill="#c34738" r="40" transform="translate(-1801.369 -123.883)"/><circle id="circle30-3-4" cx="800" cy="1454" fill="#c34738" r="40" transform="translate(-1753.935 71.12)"/><path id="path26-5" d="m-957.235 1192.0834a80.654158 110.7731 0 0 1 0 221.5462 80.654127 110.77305 0 1 0 0 221.546" fill="none" stroke="#c34738" stroke-width="24.502"/></g></g></g></svg>