<svg fill="none" height="512" viewBox="0 0 512 512" width="512" xmlns="http://www.w3.org/2000/svg"><g clip-rule="evenodd" fill-rule="evenodd"><path d="m256 32c123.712 0 224 100.288 224 224s-100.288 224-224 224-224-100.288-224-224 100.288-224 224-224z" fill="#2a2faf"/><path d="m99.2325 96h156.7675v160h-224c0-62.678 25.7429-119.343 67.2325-160z" fill="#2a2faf"/><path d="m69.7812 131.485c1.5384-2.296 3.118-4.562 4.738-6.797l181.4928 126.336v4.978h-7.351z" fill="#e92b2b"/><path d="m74.5128 124.685c.811-1.119 1.6321-2.23 2.4631-3.333l179.0301 124.621v5.048zm-7.0128 10.262c.7479-1.162 1.5062-2.317 2.2749-3.465l178.8791 124.517h-7.251z" fill="#fbfbfb"/><path d="m32 256h7.3516l216.6484-150.808v-9.192h-1.298l-222.6469 154.984c-.0367 1.667-.0551 3.339-.0551 5.016z" fill="#e92b2b"/><path d="m32.0625 250.984c.038-1.728.0955-3.451.1723-5.168l215.2232-149.816h7.252zm223.9445-145.792v5.048l-209.3963 145.76h-7.2517z" fill="#fbfbfb"/><path d="m73.4375 126.177c1.6041-2.252 3.2489-4.472 4.9332-6.661l177.6333 123.598v10.094z" fill="#fbfbfb"/><path d="m32.0312 253.198c.0426-3.468.1639-6.917.3624-10.346l211.0524-146.852h12.568v1.3493z" fill="#fbfbfb"/><path d="m42.3125 188.632c2.7275-8.66 5.9668-17.093 9.6826-25.264h80.0099v-67.368h24v67.368h100v25.264h-100v67.368h-24v-67.368z" fill="#e92b2b"/><path d="m50.1316 167.579c1.2205-2.838 2.4978-5.645 3.8307-8.421h74.0417v-63.158h8v67.368 4.211h-4zm-9.1004 25.263c.8303-2.831 1.715-5.638 2.6529-8.421h88.3199 4v4.211 67.368h-8v-63.158zm118.9728 0h96v-8.421h-100-4v4.211 67.368h8zm0-33.684v-63.158h-8v67.368 4.211h4 100v-8.421z" fill="#fbfbfb"/></g><path d="m299.99 208 4.49 13.82h14.531l-11.756 8.541 4.491 13.819-11.756-8.541-11.756 8.541 4.49-13.819-11.755-8.541h14.531z" fill="#e92b2b"/><path d="m371.99 328 4.49 13.82h14.531l-11.756 8.541 4.491 13.819-11.756-8.541-11.756 8.541 4.49-13.819-11.755-8.541h14.531z" fill="#e92b2b"/><path d="m371.99 144 4.49 13.82h14.531l-11.756 8.541 4.491 13.819-11.756-8.541-11.756 8.541 4.49-13.819-11.755-8.541h14.531z" fill="#e92b2b"/><path d="m431.998 200 3.592 11.056h11.625l-9.405 6.833 3.593 11.055-9.405-6.833-9.404 6.833 3.592-11.055-9.405-6.833h11.625z" fill="#e92b2b"/><path clip-rule="evenodd" d="m304.48 221.82-4.49-13.82-4.49 13.82h-14.531l11.755 8.541-4.49 13.819 11.756-8.541 11.756 8.541-4.491-13.819 11.756-8.541zm9.607 1.6h-10.769l-3.328-10.242-3.328 10.242h-10.769l8.712 6.33-3.327 10.241 8.712-6.329 8.712 6.329-3.328-10.241z" fill="#fbfbfb" fill-rule="evenodd"/><path clip-rule="evenodd" d="m376.48 341.82-4.49-13.82-4.49 13.82h-14.531l11.755 8.541-4.49 13.819 11.756-8.541 11.756 8.541-4.491-13.819 11.756-8.541zm9.607 1.6h-10.769l-3.328-10.242-3.328 10.242h-10.769l8.712 6.33-3.327 10.241 8.712-6.329 8.712 6.329-3.328-10.241z" fill="#fbfbfb" fill-rule="evenodd"/><path clip-rule="evenodd" d="m376.48 157.82-4.49-13.82-4.49 13.82h-14.531l11.755 8.541-4.49 13.819 11.756-8.541 11.756 8.541-4.491-13.819 11.756-8.541zm9.607 1.6h-10.769l-3.328-10.242-3.328 10.242h-10.769l8.712 6.33-3.327 10.241 8.712-6.329 8.712 6.329-3.328-10.241z" fill="#fbfbfb" fill-rule="evenodd"/><path clip-rule="evenodd" d="m435.59 211.056-3.592-11.056-3.592 11.056h-11.625l9.405 6.833-3.592 11.055 9.404-6.833 9.405 6.833-3.593-11.055 9.405-6.833zm6.701 1.6h-7.863l-2.43-7.478-2.43 7.478h-7.862l6.361 4.621-2.43 7.478 6.361-4.621 6.361 4.621-2.429-7.478z" fill="#fbfbfb" fill-rule="evenodd"/></svg>