<svg height="512" viewBox="0 0 480 480" width="512" xmlns="http://www.w3.org/2000/svg"><g id="Layer_2" data-name="Layer 2"><g id="North_Macedonia" data-name="North Macedonia"><circle cx="240" cy="240" fill="#e70000" r="240"/><g fill="#fed501"><path d="m266 1.39-11.55 165a75.07 75.07 0 0 0 -28.86 0l-11.59-165a243.49 243.49 0 0 1 52 0z"/><path d="m198.18 177.77a75.74 75.74 0 0 0 -20.18 20.12l-124.88-108.5a241.91 241.91 0 0 1 36.54-36.48z"/><path d="m165 240a75.26 75.26 0 0 0 1 12.18l-164.84 11.54q-1.16-11.67-1.16-23.64v-1.41a239 239 0 0 1 1.58-26.36l165.17 11.57a74.49 74.49 0 0 0 -1.75 16.12z"/><path d="m194.38 299.48-108.38 124.64a241.37 241.37 0 0 1 -35.69-37l125.18-108.8a75.54 75.54 0 0 0 18.89 21.16z"/><path d="m259.88 479.18q-8.56.72-17.31.81h-2.57a241.54 241.54 0 0 1 -31.78-2.09l11.61-165.67a75 75 0 0 0 28.54 2.29z"/><path d="m423.41 394.81a241.89 241.89 0 0 1 -37.67 35.89l-108.95-125.36a75.52 75.52 0 0 0 22-18.84z"/><path d="m480 239.41v.76a242.16 242.16 0 0 1 -1.87 29.92l-165.44-11.59a74.78 74.78 0 0 0 2.31-18.5 75.82 75.82 0 0 0 -.75-10.61l164.75-11.54c.65 7.09 1 14.3 1 21.56z"/><path d="m428.16 91-125 108.62a75.82 75.82 0 0 0 -20.15-21l108.46-124.79a241.51 241.51 0 0 1 36.69 37.17z"/><circle cx="240" cy="240" r="59"/></g></g></g></svg>